<svg width="553" height="197" viewBox="0 0 553 197" fill="none" xmlns="http://www.w3.org/2000/svg">
<g clip-path="url(#clip0_0_1)">
<path d="M285.4 61L311.7 59.3C312.3 63.6 313.4 66.8 315.2 69.1C318.1 72.7 322.1 74.5 327.4 74.5C331.3 74.5 334.4 73.6 336.5 71.7C338.5 70.2 339.7 67.8 339.7 65.3C339.7 62.9 338.6 60.6 336.7 59.1C334.7 57.3 330 55.5 322.6 53.9C310.5 51.2 301.8 47.6 296.7 43C291.6 38.7 288.7 32.4 288.9 25.7C288.9 21.1 290.3 16.5 292.9 12.7C295.9 8.40001 300 5.00001 304.9 3.10001C310.2 0.800007 317.6 -0.399994 326.9 -0.399994C338.3 -0.399994 347 1.70001 353 6.00001C359 10.2 362.6 17 363.7 26.3L337.7 27.8C337 23.8 335.6 20.9 333.3 19C331 17.1 328 16.2 324.1 16.2C320.9 16.2 318.5 16.9 316.9 18.2C315.4 19.4 314.4 21.2 314.5 23.2C314.5 24.7 315.3 26.1 316.5 27C317.8 28.2 320.9 29.3 325.8 30.3C337.9 32.9 346.5 35.5 351.8 38.2C357.1 40.9 360.9 44.2 363.2 48.1C365.6 52.1 366.8 56.7 366.7 61.4C366.7 67 365.1 72.6 361.9 77.3C358.6 82.2 354 86 348.6 88.3C342.9 90.8 335.7 92.1 327.1 92.1C311.9 92.1 301.4 89.2 295.5 83.3C289.6 77.4 286.1 70 285.4 61ZM6.3 90.6V1.20001H52.4C60.9 1.20001 67.5 1.90001 72 3.40001C76.4 4.80001 80.3 7.70001 82.9 11.6C85.8 15.9 87.2 20.9 87.1 26.1C87.4 34.9 82.9 43.3 75.2 47.7C72.2 49.4 68.9 50.6 65.5 51.2C68 51.9 70.5 53.1 72.7 54.5C74.4 55.9 75.8 57.5 77.1 59.2C78.6 60.9 79.9 62.8 81 64.8L94.4 90.7H63L48.2 63.2C46.3 59.7 44.7 57.4 43.2 56.3C41.2 54.9 38.8 54.2 36.4 54.2H34V90.5H6.3V90.6ZM34 37.4H45.7C48.2 37.2 50.6 36.8 53 36.2C54.8 35.9 56.4 34.9 57.5 33.4C60.2 29.8 59.8 24.7 56.5 21.6C54.7 20.1 51.2 19.3 46.2 19.3H34V37.4ZM0 167.2L26.3 165.5C26.9 169.8 28 173 29.8 175.3C32.6 178.9 36.7 180.8 42 180.8C45.9 180.8 49 179.9 51.1 178C53.1 176.4 54.3 174.1 54.3 171.6C54.3 169.2 53.2 166.9 51.3 165.4C49.3 163.6 44.6 161.8 37.1 160.2C25 157.5 16.3 153.9 11.2 149.3C6.1 145 3.2 138.7 3.4 132C3.4 127.4 4.8 122.8 7.4 119C10.4 114.7 14.5 111.3 19.4 109.4C24.7 107.1 32.1 105.9 41.4 105.9C52.8 105.9 61.5 108 67.5 112.3C73.5 116.6 77 123.3 78.1 132.6L52.1 134.1C51.4 130.1 50 127.2 47.7 125.3C45.5 123.4 42.4 122.5 38.5 122.6C35.3 122.6 32.9 123.3 31.3 124.7C29.7 125.9 28.8 127.7 28.9 129.7C28.9 131.2 29.7 132.6 30.9 133.5C32.2 134.7 35.3 135.8 40.2 136.8C52.3 139.4 60.9 142 66.2 144.7C71.5 147.4 75.3 150.7 77.6 154.6C80 158.6 81.2 163.2 81.2 167.8C81.2 173.4 79.5 178.9 76.4 183.6C73.1 188.5 68.5 192.3 63.1 194.6C57.4 197.1 50.2 198.4 41.6 198.4C26.4 198.4 15.9 195.5 10 189.6C4.1 183.6 0.8 176.2 0 167.2H0Z" fill="white"/>
<path d="M133 160.2L157.2 167.5C155.9 173.6 153.2 179.4 149.5 184.5C146.1 189 141.6 192.5 136.5 194.8C131.3 197.1 124.7 198.3 116.7 198.3C107 198.3 99 196.9 92.9 194.1C86.7 191.3 81.4 186.3 76.9 179.2C72.4 172.1 70.2 163 70.2 151.9C70.2 137.1 74.1 125.7 82 117.8C89.9 109.9 101 105.9 115.4 105.9C126.7 105.9 135.5 108.2 142 112.7C148.4 117.3 153.2 124.3 156.4 133.7L132 139.1C131.4 137 130.5 134.9 129.3 133.1C127.8 131 125.9 129.4 123.6 128.2C121.3 127 118.7 126.5 116.1 126.5C109.8 126.5 105 129 101.7 134.1C99.2 137.8 97.9 143.7 97.9 151.7C97.9 161.6 99.4 168.4 102.4 172.1C105.4 175.8 109.6 177.6 115.1 177.6C120.4 177.6 124.4 176.1 127.1 173.2C129.8 170.1 131.8 165.8 133 160.2ZM189.5 107.4H217.1V138.7H247.3V107.4H275.1V196.8H247.3V160.6H217.1V196.8H189.5V107.4V107.4Z" fill="white"/>
<path d="M271.3 152.1C271.3 137.5 275.4 126.1 283.5 118C291.6 109.9 303 105.8 317.5 105.8C332.4 105.8 343.8 109.8 351.9 117.8C360 125.8 364 137 364 151.4C364 161.9 362.2 170.4 358.7 177.1C355.3 183.7 350 189.1 343.5 192.7C336.8 196.4 328.5 198.3 318.6 198.3C308.5 198.3 300.2 196.7 293.6 193.5C286.8 190.1 281.2 184.8 277.5 178.3C273.4 171.3 271.3 162.6 271.3 152.1ZM298.9 152.2C298.9 161.2 300.6 167.7 303.9 171.7C307.2 175.6 311.8 177.6 317.6 177.6C323.5 177.6 328.1 175.7 331.4 171.8C334.7 167.9 336.3 161 336.3 151C336.3 142.6 334.6 136.4 331.2 132.6C327.8 128.7 323.2 126.8 317.4 126.8C312.3 126.6 307.4 128.8 304 132.7C300.6 136.6 298.9 143.1 298.9 152.2V152.2ZM392.3 152.1C392.3 137.5 396.4 126.1 404.5 118C412.6 109.9 424 105.8 438.5 105.8C453.4 105.8 464.9 109.8 472.9 117.8C480.9 125.8 485 137 485 151.4C485 161.9 483.2 170.4 479.7 177.1C476.3 183.7 471 189.1 464.5 192.7C457.8 196.4 449.5 198.3 439.6 198.3C429.5 198.3 421.2 196.7 414.6 193.5C407.8 190.1 402.2 184.8 398.5 178.3C394.4 171.3 392.3 162.6 392.3 152.1V152.1ZM419.9 152.2C419.9 161.2 421.6 167.7 424.9 171.7C428.2 175.6 432.8 177.6 438.6 177.6C444.5 177.6 449.1 175.7 452.4 171.8C455.7 167.9 457.3 161 457.3 151C457.3 142.6 455.6 136.4 452.2 132.6C448.8 128.7 444.2 126.8 438.4 126.8C433.3 126.6 428.3 128.8 425 132.7C421.6 136.6 419.9 143.1 419.9 152.2V152.2Z" fill="white"/>
<path d="M451.679 102.241C479.466 81.3007 488.035 45.804 470.817 22.9567C453.6 0.109338 417.117 -1.43687 389.329 19.5031C361.542 40.4431 352.973 75.9398 370.191 98.7871C387.408 121.634 423.891 123.181 451.679 102.241Z" fill="black"/>
<path d="M451.679 102.241C479.466 81.3007 488.035 45.804 470.817 22.9567C453.6 0.109338 417.117 -1.43687 389.329 19.5031C361.542 40.4431 352.973 75.9398 370.191 98.7871C387.408 121.634 423.891 123.181 451.679 102.241Z" fill="black"/>
<path d="M451.679 102.241C479.466 81.3007 488.035 45.804 470.817 22.9567C453.6 0.109338 417.117 -1.43687 389.329 19.5031C361.542 40.4431 352.973 75.9398 370.191 98.7871C387.408 121.634 423.891 123.181 451.679 102.241Z" stroke="white" stroke-width="4" stroke-miterlimit="10"/>
<path d="M482.1 107.4H509.7V174.8H552.8V196.8H482V107.4H482.1Z" fill="white"/>
<path d="M392.4 54.3L402.4 47.3L414.7 64.8C416.8 67.6 418.4 70.6 419.6 73.9C420.3 76.4 420.1 79.1 419.1 81.5C417.8 84.5 415.7 87 412.9 88.8C409.6 91.1 406.8 92.4 404.4 92.8C402.1 93.2 399.7 92.8 397.5 91.8C395.1 90.6 393 88.9 391.4 86.7L400 78.7C400.7 79.8 401.6 80.8 402.6 81.6C403.3 82.1 404.1 82.4 405 82.4C405.7 82.4 406.4 82.1 406.9 81.7C407.9 81.1 408.6 79.9 408.5 78.7C408.2 77 407.5 75.3 406.4 74L392.4 54.3V54.3ZM422.4 65.4L431.5 58.2C432.5 59.4 433.8 60.3 435.2 60.8C437.2 61.4 439.3 61 441 59.7C442.2 58.9 443.2 57.8 443.6 56.4C444.2 54.6 443.2 52.6 441.4 52C441.1 51.9 440.8 51.8 440.5 51.8C439.3 51.7 437.2 52.2 434.1 53.5C429 55.6 425 56.4 422 56.1C419.1 55.8 416.4 54.3 414.8 51.8C413.6 50.1 413 48.1 412.9 46.1C412.9 43.8 413.5 41.5 414.8 39.6C416.7 36.9 419 34.6 421.8 32.8C426 29.9 429.7 28.5 432.9 28.5C436.1 28.5 439.1 30 441.9 33.1L432.9 40.2C431.1 37.9 427.7 37.4 425.4 39.2L425.1 39.5C424.1 40.1 423.4 41 423 42.1C422.7 42.9 422.9 43.8 423.4 44.5C423.8 45 424.4 45.4 425.1 45.4C425.9 45.5 427.3 45.1 429.3 44.2C434.3 42.1 438.1 40.9 440.7 40.5C442.9 40.1 445.2 40.3 447.3 41.2C449.2 42 450.8 43.4 451.9 45.1C453.3 47.1 454.1 49.5 454.2 52C454.3 54.6 453.6 57.1 452.2 59.3C450.4 62 448.1 64.3 445.4 66.1C439.9 69.9 435.4 71.5 431.8 70.9C427.9 70.3 424.7 68.3 422.4 65.4V65.4Z" fill="white"/>
</g>
<defs>
<clipPath id="clip0_0_1">
<rect width="552.8" height="205.3" fill="white" transform="translate(0 -7)"/>
</clipPath>
</defs>
</svg>
